# xmcd
#
# Track frame offsets:
#	180
#	10526
#	23264
#	44970
#	60332
#	85443
#	106449
#	127092
#	142741
#	160000
#
# Disc length: 2381 seconds
#
# Revision: 0
# Processed by: cddbd v1.5.2PL0 Copyright (c) Steve Scherf et al.
# Submitted via: dBpowerAMP V4.0
#
DISCID=75094b0a
DTITLE=Drivers - Superflu
DYEAR=1998
DGENRE=Countryrock
TTITLE0=Wasted Sixteen Early Bithdays
TTITLE1=Falling
TTITLE2=Don't Be Cruel
TTITLE3=I Was Just A Lad (Nearly Twenty-Two)
TTITLE4=A Trip
TTITLE5=Ruin
TTITLE6=Viva De La Santos
TTITLE7=I Don't Care (If Tomorrow Doesn't Come)
TTITLE8=My Proud Maria
TTITLE9=Susanna (Suesse Luegen)
EXTD=
EXTT0=
EXTT1=
EXTT2=
EXTT3=
EXTT4=
EXTT5=
EXTT6=
EXTT7=
EXTT8=
EXTT9=
PLAYORDER=
